<?xml version="1.0" encoding="UTF-8"?>
<svg xmlns="http://www.w3.org/2000/svg" xmlns:xlink="http://www.w3.org/1999/xlink" width="128pt" height="128pt" viewBox="0 0 128 128" version="1.1">
<g id="surface1">
<path style=" stroke:none;fill-rule:nonzero;fill:rgb(0%,0%,0%);fill-opacity:1;" d="M 36.4375 50.367188 C 35.410156 49.539062 34.375 49.125 33.347656 49.125 L 28.722656 49.125 L 28.722656 78.972656 L 33.351562 78.972656 C 34.378906 78.972656 35.410156 78.558594 36.441406 77.730469 C 37.46875 76.902344 37.984375 75.660156 37.984375 74 L 37.984375 54.101562 C 37.980469 52.441406 37.464844 51.195312 36.4375 50.367188 Z M 111.75 0 L 16.222656 0 C 9.804688 0 4.597656 5.597656 4.582031 12.515625 L 4.582031 115.484375 C 4.597656 122.402344 9.804688 128 16.222656 128 L 111.75 128 C 118.171875 128 123.375 122.402344 123.390625 115.484375 L 123.390625 12.515625 C 123.375 5.597656 118.167969 0 111.75 0 Z M 45.476562 74.054688 C 45.476562 79.429688 42.398438 87.570312 32.648438 87.554688 L 20.34375 87.554688 L 20.34375 40.28125 L 32.910156 40.28125 C 42.308594 40.28125 45.472656 48.410156 45.472656 53.789062 Z M 72.175781 48.722656 L 58.046875 48.722656 L 58.046875 59.699219 L 66.683594 59.699219 L 66.683594 68.148438 L 58.046875 68.148438 L 58.046875 79.121094 L 72.179688 79.121094 L 72.179688 87.570312 L 55.6875 87.570312 C 52.730469 87.652344 50.269531 85.132812 50.195312 81.945312 L 50.195312 46.199219 C 50.121094 43.015625 52.464844 40.367188 55.421875 40.289062 L 72.179688 40.289062 Z M 99.660156 81.664062 C 96.160156 90.449219 89.890625 88.699219 87.082031 81.664062 L 76.863281 40.292969 L 85.5 40.292969 L 93.378906 72.785156 L 101.222656 40.292969 L 109.863281 40.292969 Z M 99.660156 81.664062 "/>
</g>
</svg>
