<?xml version="1.0" encoding="UTF-8"?>
<svg xmlns="http://www.w3.org/2000/svg" xmlns:xlink="http://www.w3.org/1999/xlink" width="516pt" height="480pt" viewBox="0 0 516 480" version="1.1">
<g id="surface1">
<path style=" stroke:none;fill-rule:nonzero;fill:rgb(0%,0%,0%);fill-opacity:1;" d="M 146.890625 188.882812 C 142.742188 185.773438 138.582031 184.222656 134.433594 184.222656 L 115.789062 184.222656 L 115.789062 296.152344 L 134.445312 296.152344 C 138.59375 296.152344 142.75 294.597656 146.902344 291.492188 C 151.046875 288.386719 153.121094 283.726562 153.121094 277.5 L 153.121094 202.875 C 153.113281 196.660156 151.027344 191.988281 146.890625 188.882812 Z M 450.492188 0 L 65.402344 0 C 39.53125 0 18.53125 20.988281 18.46875 46.929688 L 18.46875 433.070312 C 18.53125 459.011719 39.53125 480 65.402344 480 L 450.492188 480 C 476.378906 480 497.363281 459.011719 497.425781 433.070312 L 497.425781 46.929688 C 497.363281 20.988281 476.367188 0 450.492188 0 Z M 183.324219 277.703125 C 183.324219 297.855469 170.914062 328.394531 131.621094 328.328125 L 82.015625 328.328125 L 82.015625 151.050781 L 132.671875 151.050781 C 170.558594 151.050781 183.304688 181.542969 183.316406 201.707031 Z M 290.960938 182.710938 L 234 182.710938 L 234 223.875 L 268.820312 223.875 L 268.820312 255.558594 L 234 255.558594 L 234 296.710938 L 290.972656 296.710938 L 290.972656 328.394531 L 224.496094 328.394531 C 212.566406 328.703125 202.644531 319.253906 202.34375 307.296875 L 202.34375 173.25 C 202.054688 161.304688 211.496094 151.382812 223.417969 151.082031 L 290.972656 151.082031 Z M 401.761719 306.234375 C 387.652344 339.183594 362.367188 332.625 351.046875 306.234375 L 309.855469 151.09375 L 344.671875 151.09375 L 376.4375 272.9375 L 408.050781 151.09375 L 442.882812 151.09375 Z M 401.761719 306.234375 "/>
</g>
</svg>
